<svg width="26" height="26" viewBox="0 0 26 26" fill="none" xmlns="http://www.w3.org/2000/svg">
<path d="M21.0386 5.99634C21.4636 6.26567 21.8135 6.63814 22.0558 7.07907C22.2982 7.52001 22.425 8.01508 22.4246 8.51823V18.1754C22.4246 20.8426 20.2632 23.0039 17.596 23.0039H7.93891C7.43544 23.0042 6.94006 22.8772 6.49883 22.6347C6.0576 22.3922 5.68483 22.0421 5.41519 21.617L5.52739 21.6225L5.6396 21.6243H17.596C18.5108 21.6243 19.388 21.261 20.0348 20.6141C20.6816 19.9673 21.045 19.0901 21.045 18.1754V6.21891C21.0449 6.14467 21.0428 6.07045 21.0386 5.99634ZM5.40967 13.8067C5.40967 13.1968 5.65192 12.612 6.08312 12.1808C6.51433 11.7496 7.09917 11.5073 7.70898 11.5073C8.3188 11.5073 8.90364 11.7496 9.33484 12.1808C9.76605 12.612 10.0083 13.1968 10.0083 13.8067C10.0083 14.4165 9.76605 15.0013 9.33484 15.4325C8.90364 15.8637 8.3188 16.106 7.70898 16.106C7.09917 16.106 6.51433 15.8637 6.08312 15.4325C5.65192 15.0013 5.40967 14.4165 5.40967 13.8067ZM7.70898 12.8869C7.46506 12.8869 7.23112 12.9838 7.05864 13.1563C6.88616 13.3288 6.78926 13.5627 6.78926 13.8067C6.78926 14.0506 6.88616 14.2845 7.05864 14.457C7.23112 14.6295 7.46506 14.7264 7.70898 14.7264C7.95291 14.7264 8.18685 14.6295 8.35933 14.457C8.53181 14.2845 8.62871 14.0506 8.62871 13.8067C8.62871 13.5627 8.53181 13.3288 8.35933 13.1563C8.18685 12.9838 7.95291 12.8869 7.70898 12.8869Z" fill="white"/>
<path d="M11.8477 13.5766C11.8477 13.3937 11.9204 13.2182 12.0498 13.0889C12.1791 12.9595 12.3546 12.8868 12.5375 12.8868H17.1362C17.3191 12.8868 17.4946 12.9595 17.6239 13.0889C17.7533 13.2182 17.826 13.3937 17.826 13.5766C17.826 13.7596 17.7533 13.935 17.6239 14.0644C17.4946 14.1938 17.3191 14.2664 17.1362 14.2664H12.5375C12.3546 14.2664 12.1791 14.1938 12.0498 14.0644C11.9204 13.935 11.8477 13.7596 11.8477 13.5766ZM5.40967 8.978C5.40967 8.79506 5.48234 8.61961 5.6117 8.49024C5.74107 8.36088 5.91652 8.28821 6.09946 8.28821H17.1362C17.3191 8.28821 17.4946 8.36088 17.6239 8.49024C17.7533 8.61961 17.826 8.79506 17.826 8.978C17.826 9.16095 17.7533 9.3364 17.6239 9.46576C17.4946 9.59512 17.3191 9.6678 17.1362 9.6678H6.09946C5.91652 9.6678 5.74107 9.59512 5.6117 9.46576C5.48234 9.3364 5.40967 9.16095 5.40967 8.978Z" fill="white"/>
<path d="M17.1361 3.22974C17.5286 3.22974 17.9173 3.30705 18.28 3.45727C18.6426 3.60749 18.9721 3.82766 19.2497 4.10523C19.5273 4.38279 19.7474 4.71231 19.8977 5.07496C20.0479 5.43762 20.1252 5.82631 20.1252 6.21885V17.7154C20.1252 18.108 20.0479 18.4966 19.8977 18.8593C19.7474 19.222 19.5273 19.5515 19.2497 19.829C18.9721 20.1066 18.6426 20.3268 18.28 20.477C17.9173 20.6272 17.5286 20.7045 17.1361 20.7045H5.6395C5.24696 20.7045 4.85827 20.6272 4.49562 20.477C4.13296 20.3268 3.80344 20.1066 3.52588 19.829C3.24832 19.5515 3.02814 19.222 2.87792 18.8593C2.72771 18.4966 2.65039 18.108 2.65039 17.7154V6.21885C2.65039 5.42608 2.96531 4.66579 3.52588 4.10523C4.08645 3.54466 4.84674 3.22974 5.6395 3.22974H17.1361ZM17.1361 19.3249C17.3475 19.3251 17.5568 19.2835 17.7522 19.2027C17.9475 19.1218 18.125 19.0033 18.2744 18.8538C18.4239 18.7043 18.5425 18.5268 18.6233 18.3315C18.7042 18.1362 18.7457 17.9268 18.7456 17.7154V6.21885C18.7456 5.79197 18.576 5.38259 18.2742 5.08074C17.9723 4.7789 17.5629 4.60933 17.1361 4.60933H5.6395C5.21263 4.60933 4.80324 4.7789 4.5014 5.08074C4.19955 5.38259 4.02998 5.79197 4.02998 6.21885V17.7154C4.02962 17.9269 4.071 18.1363 4.15176 18.3318C4.23251 18.5272 4.35106 18.7048 4.50059 18.8543C4.65012 19.0039 4.82769 19.1224 5.02313 19.2032C5.21857 19.2839 5.42803 19.3253 5.6395 19.3249H17.1361Z" fill="white"/>
</svg>
