<svg width="31" height="31" viewBox="0 0 31 31" fill="none" xmlns="http://www.w3.org/2000/svg">
<path d="M7.83662 14.0985C7.83662 13.7279 7.9096 13.361 8.05139 13.0187C8.19319 12.6764 8.40102 12.3654 8.66302 12.1034C8.92503 11.8413 9.23607 11.6335 9.57839 11.4917C9.92072 11.3499 10.2876 11.2769 10.6581 11.2769C11.0287 11.2769 11.3956 11.3499 11.7379 11.4917C12.0802 11.6335 12.3913 11.8413 12.6533 12.1034C12.9153 12.3654 13.1231 12.6764 13.2649 13.0187C13.4067 13.361 13.4797 13.7279 13.4797 14.0985C13.4797 14.8468 13.1824 15.5645 12.6533 16.0936C12.1241 16.6227 11.4065 16.92 10.6581 16.92C9.90983 16.92 9.19216 16.6227 8.66302 16.0936C8.13389 15.5645 7.83662 14.8468 7.83662 14.0985ZM10.6581 13.158C10.4087 13.158 10.1695 13.2571 9.9931 13.4334C9.81672 13.6098 9.71764 13.849 9.71764 14.0985C9.71764 14.3479 9.81672 14.5871 9.9931 14.7635C10.1695 14.9399 10.4087 15.039 10.6581 15.039C10.9076 15.039 11.1468 14.9399 11.3232 14.7635C11.4996 14.5871 11.5987 14.3479 11.5987 14.0985C11.5987 13.849 11.4996 13.6098 11.3232 13.4334C11.1468 13.2571 10.9076 13.158 10.6581 13.158ZM10.6581 18.174C9.90983 18.174 9.19216 18.4713 8.66302 19.0004C8.13389 19.5296 7.83662 20.2472 7.83662 20.9955C7.83662 21.7438 8.13389 22.4615 8.66302 22.9907C9.19216 23.5198 9.90983 23.8171 10.6581 23.8171C11.4065 23.8171 12.1241 23.5198 12.6533 22.9907C13.1824 22.4615 13.4797 21.7438 13.4797 20.9955C13.4797 20.2472 13.1824 19.5296 12.6533 19.0004C12.1241 18.4713 11.4065 18.174 10.6581 18.174ZM9.71764 20.9955C9.71764 20.7461 9.81672 20.5069 9.9931 20.3305C10.1695 20.1541 10.4087 20.055 10.6581 20.055C10.9076 20.055 11.1468 20.1541 11.3232 20.3305C11.4996 20.5069 11.5987 20.7461 11.5987 20.9955C11.5987 21.245 11.4996 21.4842 11.3232 21.6606C11.1468 21.837 10.9076 21.936 10.6581 21.936C10.4087 21.936 10.1695 21.837 9.9931 21.6606C9.81672 21.4842 9.71764 21.245 9.71764 20.9955ZM15.3607 14.0985C15.3607 13.849 15.4598 13.6098 15.6362 13.4334C15.8125 13.2571 16.0518 13.158 16.3012 13.158H21.9442C22.1937 13.158 22.4329 13.2571 22.6093 13.4334C22.7857 13.6098 22.8848 13.849 22.8848 14.0985C22.8848 14.3479 22.7857 14.5871 22.6093 14.7635C22.4329 14.9399 22.1937 15.039 21.9442 15.039H16.3012C16.0518 15.039 15.8125 14.9399 15.6362 14.7635C15.4598 14.5871 15.3607 14.3479 15.3607 14.0985ZM16.3012 20.055C16.0518 20.055 15.8125 20.1541 15.6362 20.3305C15.4598 20.5069 15.3607 20.7461 15.3607 20.9955C15.3607 21.245 15.4598 21.4842 15.6362 21.6606C15.8125 21.837 16.0518 21.936 16.3012 21.936H21.9442C22.1937 21.936 22.4329 21.837 22.6093 21.6606C22.7857 21.4842 22.8848 21.245 22.8848 20.9955C22.8848 20.7461 22.7857 20.5069 22.6093 20.3305C22.4329 20.1541 22.1937 20.055 21.9442 20.055H16.3012ZM7.83662 9.08243C7.83662 8.83299 7.93571 8.59376 8.11209 8.41739C8.28847 8.24101 8.52769 8.14192 8.77713 8.14192H21.9442C22.1937 8.14192 22.4329 8.24101 22.6093 8.41739C22.7857 8.59376 22.8848 8.83299 22.8848 9.08243C22.8848 9.33186 22.7857 9.57109 22.6093 9.74747C22.4329 9.92384 22.1937 10.0229 21.9442 10.0229H8.77713C8.52769 10.0229 8.28847 9.92384 8.11209 9.74747C7.93571 9.57109 7.83662 9.33186 7.83662 9.08243ZM8.15012 4.37988C7.06922 4.37988 6.03259 4.80927 5.26828 5.57358C4.50397 6.33789 4.07458 7.37452 4.07458 8.45542V22.8765C4.07458 23.9574 4.50397 24.9941 5.26828 25.7584C6.03259 26.5227 7.06922 26.9521 8.15012 26.9521H22.5713C23.6522 26.9521 24.6888 26.5227 25.4531 25.7584C26.2174 24.9941 26.6468 23.9574 26.6468 22.8765V8.45542C26.6468 7.37452 26.2174 6.33789 25.4531 5.57358C24.6888 4.80927 23.6522 4.37988 22.5713 4.37988H8.15012ZM5.9556 8.45542C5.9556 7.24404 6.93875 6.2609 8.15012 6.2609H22.5713C23.7826 6.2609 24.7658 7.24404 24.7658 8.45542V22.8765C24.7658 23.4586 24.5346 24.0168 24.123 24.4283C23.7115 24.8399 23.1533 25.0711 22.5713 25.0711H8.15012C7.5681 25.0711 7.00991 24.8399 6.59836 24.4283C6.18681 24.0168 5.9556 23.4586 5.9556 22.8765V8.45542Z" fill="white"/>
</svg>
