<svg width="30" height="31" viewBox="0 0 30 31" fill="none" xmlns="http://www.w3.org/2000/svg">
<path d="M22.5 27.8848L11.25 27.8848C10.587 27.8848 9.95107 27.6214 9.48223 27.1525C9.01339 26.6837 8.75 26.0478 8.75 25.3848L8.75 22.8848L11.25 22.8848L11.25 25.3848L22.5 25.3848L22.5 5.38477L11.25 5.38477L11.25 7.88477L8.75 7.88477L8.75 5.38477C8.75 4.72173 9.01339 4.08584 9.48223 3.617C9.95107 3.14816 10.587 2.88477 11.25 2.88477L22.5 2.88477C23.163 2.88477 23.7989 3.14816 24.2678 3.617C24.7366 4.08584 25 4.72173 25 5.38477L25 25.3848C25 26.0478 24.7366 26.6837 24.2678 27.1525C23.7989 27.6214 23.163 27.8848 22.5 27.8848Z" fill="white"/>
<path d="M9.8875 10.8973L8.125 9.13477L1.875 15.3848L8.125 21.6348L9.8875 19.8723L6.6625 16.6348L18.75 16.6348L18.75 14.1348L6.6625 14.1348L9.8875 10.8973Z" fill="white"/>
</svg>
