<svg width="29" height="30" viewBox="0 0 29 30" fill="none" xmlns="http://www.w3.org/2000/svg">
<path d="M22.9896 3.05396V5.45812H20.5855V9.06437C22.5773 9.06437 24.1917 10.6788 24.1917 12.6706V25.8935C24.1917 26.5571 23.6532 27.0956 22.9896 27.0956H6.16046C5.49691 27.0956 4.95837 26.5571 4.95837 25.8935V12.6706C4.95837 10.6788 6.57277 9.06437 8.56462 9.06437V5.45812H6.16046V3.05396H22.9896ZM20.5855 11.4685H8.56462C7.90107 11.4685 7.36254 12.0071 7.36254 12.6706V24.6915H21.7875V12.6706C21.7875 12.0071 21.249 11.4685 20.5855 11.4685ZM15.7771 13.8727V16.2769H18.1813V18.681H15.7759L15.7771 21.0852H13.373L13.3718 18.681H10.9688V16.2769H13.373V13.8727H15.7771ZM18.1813 5.45812H10.9688V9.06437H18.1813V5.45812Z" fill="white"/>
</svg>
