<svg width="22" height="23" viewBox="0 0 22 23" fill="none" xmlns="http://www.w3.org/2000/svg">
<path fill-rule="evenodd" clip-rule="evenodd" d="M2.27236 4.72843L0.636911 3.09299C0.589886 3.04584 0.529921 3.01372 0.464618 3.0007C0.399316 2.98768 0.331617 2.99434 0.270104 3.01983C0.208591 3.04533 0.156034 3.08852 0.119096 3.14392C0.0821587 3.19933 0.0625035 3.26445 0.0626226 3.33104V8.23469C0.0626226 8.42029 0.213256 8.57092 0.398857 8.57092H5.3025C5.36909 8.57104 5.43422 8.55138 5.48962 8.51445C5.54502 8.47751 5.58821 8.42495 5.61371 8.36344C5.63921 8.30193 5.64587 8.23423 5.63285 8.16893C5.61982 8.10362 5.5877 8.04366 5.54056 7.99663L3.71413 6.17021C4.90472 4.50739 6.64059 3.31461 8.61974 2.7994C10.5989 2.28418 12.696 2.47915 14.5463 3.35038C16.3965 4.2216 17.8828 5.71394 18.7464 7.56774C19.6101 9.42153 19.7964 11.5194 19.2731 13.4965C18.7498 15.4735 17.55 17.2045 15.8823 18.3882C14.2146 19.572 12.1847 20.1337 10.1457 19.9754C8.10676 19.8172 6.18779 18.9491 4.7227 17.5223C3.25761 16.0954 2.33915 14.2 2.1271 12.1659C2.09964 11.8997 1.96752 11.6552 1.75981 11.4863C1.5521 11.3175 1.28582 11.238 1.01955 11.2655C0.75327 11.293 0.50881 11.4251 0.339946 11.6328C0.171081 11.8405 0.0916441 12.1068 0.11911 12.3731C0.37786 14.8629 1.49653 17.1846 3.28255 18.9385C5.06856 20.6924 7.41016 21.7688 9.90425 21.9824C12.3983 22.1959 14.8888 21.5333 16.947 20.1085C19.0052 18.6838 20.5023 16.5861 21.1806 14.1765C21.8589 11.7669 21.6759 9.1963 20.6631 6.90711C19.6504 4.61791 17.8712 2.75341 15.632 1.63458C13.3927 0.515743 10.8335 0.212581 8.39478 0.777281C5.95609 1.34198 3.79057 2.73921 2.27101 4.72843H2.27236ZM10.4859 5.88104C10.7534 5.88104 11.01 5.98732 11.1992 6.17649C11.3883 6.36566 11.4946 6.62222 11.4946 6.88975V10.9138L14.2221 12.0059C14.4625 12.1107 14.6526 12.3049 14.7522 12.5475C14.8518 12.7901 14.853 13.0619 14.7556 13.3053C14.6581 13.5487 14.4698 13.7447 14.2304 13.8516C13.9909 13.9585 13.7193 13.968 13.473 13.878L10.1107 12.5331C9.92367 12.4582 9.7634 12.329 9.6505 12.1621C9.5376 11.9953 9.47724 11.7985 9.47719 11.597V6.88975C9.47719 6.62222 9.58347 6.36566 9.77263 6.17649C9.9618 5.98732 10.2184 5.88104 10.4859 5.88104Z" fill="white"/>
</svg>
